<svg width="862" height="136" viewBox="0 0 862 136" fill="none" xmlns="http://www.w3.org/2000/svg">
<path d="M853.572 103.727V33.4264H851.656V31.7982H854.625V30.0742H853.38V28.7333H852.231V25.4769H845.047V24.2318L842.366 21.55C842.366 21.55 830.968 21.55 830.681 21.55C830.393 21.55 829.244 23.4656 829.244 23.4656V26.2431H820.049V29.4038H818.9V31.032H818.134V33.1391H821.294V34.5758H820.337V99.7047C818.134 99.7047 817.751 100.95 817.751 100.95V122.883H814.59L816.314 121.063L805.778 119.435V96.3524H807.024V94.4369L808.364 93.2876L794.956 92.4256V91.6593L791.22 90.3185V89.2649L784.899 88.2113L778.194 89.8396H779.152V90.7973H776.375V91.6593H777.811V93.5749H774.268L775.321 73.0784L769.191 70.4924L767.084 72.3122V70.3009L764.69 71.3544V69.9178L762.104 71.1629V72.3122H759.805L758.847 71.3544L753.867 73.1742L755.974 96.544H753.675V84.1887H744.193V82.9436H745.055V82.4647H744.193V76.8138H744.002V82.4647H743.236V81.7942H741.512V80.7407H738.255V79.8787H736.244V80.7407H735.19V81.7942H730.401V83.614H729.444V84.1887H728.869V86.3916H727.241V73.3658H724.942V69.1516H724.08V68.8642H721.494V66.5656H721.398V68.8642H717.088V75.2813H709.426V88.0198H706.361V92.234H707.51V107.846H704.637V94.4369H697.645V92.3298H689.6V104.494L682.321 97.2144H679.064L675.521 100.567V88.0198H673.701V84.476H667.475V85.2422H665.177V80.0702H662.495V85.2422H660.675V81.9858H657.323V80.3576C658.089 80.2618 658.76 79.8787 658.76 79.4956C658.76 79.0167 657.993 78.6336 657.036 78.6336C656.078 78.6336 655.312 79.0167 655.312 79.4956C655.312 79.9744 655.982 80.3576 656.748 80.3576V81.6984H654.066V71.546H653.588C653.588 71.546 653.588 58.9991 653.588 58.8076C653.588 58.616 652.63 57.8498 652.63 57.8498L651.864 58.616V69.6304H651.193V81.7942H649.661V109.282H646.021V108.325H646.883C647.649 108.325 648.224 107.75 648.224 106.984C648.224 106.218 647.649 105.643 646.883 105.643H646.021V103.248H646.883C647.649 103.248 648.224 102.674 648.224 101.908C648.224 101.141 647.649 100.567 646.883 100.567H646.021V98.1722H646.883C647.649 98.1722 648.224 97.5976 648.224 96.8313C648.224 96.0651 647.649 95.4904 646.883 95.4904H646.021V92.9044H646.883C647.649 92.9044 648.224 92.3298 648.224 91.5636C648.224 90.7973 647.649 90.2227 646.883 90.2227H646.021V87.8282H646.883C647.649 87.8282 648.224 87.2536 648.224 86.4873C648.224 85.7211 647.649 85.1464 646.883 85.1464H646.021V82.752H646.883C647.649 82.752 648.224 82.1773 648.224 81.4111C648.224 80.6449 647.649 80.0702 646.883 80.0702H646.021V77.6758H646.883C647.649 77.6758 648.224 77.1011 648.224 76.3349C648.224 75.5687 647.649 74.994 646.883 74.994H646.021V72.5996H646.883C647.649 72.5996 648.224 72.0249 648.224 71.2587C648.224 70.4924 647.649 69.9178 646.883 69.9178H646.021V67.5233H646.883C647.649 67.5233 648.224 66.9487 648.224 66.1824C648.224 65.4162 647.649 64.8416 646.883 64.8416H646.021V62.4471H646.883C647.649 62.4471 648.224 61.8724 648.224 61.1062C648.224 60.34 647.649 59.7653 646.883 59.7653H646.021V57.3709H646.883C647.649 57.3709 648.224 56.7962 648.224 56.03C648.224 55.2638 647.649 54.6891 646.883 54.6891H646.021V52.2947H646.883C647.649 52.2947 648.224 51.72 648.224 50.9538C648.224 50.1876 647.649 49.6129 646.883 49.6129H646.021V47.2184H646.883C647.649 47.2184 648.224 46.6438 648.224 45.8776C648.224 45.1113 647.649 44.5367 646.883 44.5367H646.021V42.1422H646.883C647.649 42.1422 648.224 41.5676 648.224 40.8013C648.224 40.0351 647.649 39.4604 646.883 39.4604H646.021V37.066H646.883C647.649 37.066 648.224 36.4913 648.224 35.7251C648.224 34.9589 647.649 34.3842 646.883 34.3842H646.021V31.9898H646.883C647.649 31.9898 648.224 31.4151 648.224 30.6489C648.224 29.8827 647.649 29.308 646.883 29.308H646.021V26.9136H646.883C647.649 26.9136 648.224 26.3389 648.224 25.5727C648.224 24.8064 647.649 24.2318 646.883 24.2318H646.021V21.8373H646.883C647.649 21.8373 648.224 21.2627 648.224 20.4964C648.224 19.7302 647.649 19.1556 646.883 19.1556H646.021V17.6231H635.964V15.8033C638.838 12.93 647.458 9.00311 648.894 8.62C650.714 8.23689 653.875 7.66222 651.289 7.08756C650.235 6.896 646.5 6.60867 642.19 6.32133V2.29867H625.525V0H622.939V2.29867H610.104V6.60867C603.975 7.08756 598.898 7.758 600.622 8.33267C603.592 9.29044 612.882 13.2173 615.851 14.4624V16.0907H607.423V17.6231H606.465C605.699 17.6231 605.124 18.1978 605.124 18.964C605.124 19.7302 605.699 20.3049 606.465 20.3049H607.423V22.6993H606.465C605.699 22.6993 605.124 23.274 605.124 24.0402C605.124 24.8064 605.699 25.3811 606.465 25.3811H607.423V27.7756H606.465C605.699 27.7756 605.124 28.3502 605.124 29.1164C605.124 29.8827 605.699 30.4573 606.465 30.4573H607.423V32.8518H606.465C605.699 32.8518 605.124 33.4264 605.124 34.1927C605.124 34.9589 605.699 35.5336 606.465 35.5336H607.423V38.3111H606.465C605.699 38.3111 605.124 38.8858 605.124 39.652C605.124 40.4182 605.699 40.9929 606.465 40.9929H607.423V43.3873H606.465C605.699 43.3873 605.124 43.962 605.124 44.7282C605.124 45.4944 605.699 46.0691 606.465 46.0691H607.423V48.4636H606.465C605.699 48.4636 605.124 49.0382 605.124 49.8044C605.124 50.5707 605.699 51.1453 606.465 51.1453H607.423V53.5398H606.465C605.699 53.5398 605.124 54.1144 605.124 54.8807C605.124 55.6469 605.699 56.2216 606.465 56.2216H607.423V58.616H606.465C605.699 58.616 605.124 59.1907 605.124 59.9569C605.124 60.7231 605.699 61.2978 606.465 61.2978H607.423V63.6922H606.465C605.699 63.6922 605.124 64.2669 605.124 65.0331C605.124 65.7993 605.699 66.374 606.465 66.374H607.423V68.7684H606.465C605.699 68.7684 605.124 69.3431 605.124 70.1093C605.124 70.8756 605.699 71.4502 606.465 71.4502H607.423V73.8447H606.465C605.699 73.8447 605.124 74.4193 605.124 75.1856C605.124 75.9518 605.699 76.5265 606.465 76.5265H607.423V78.9209H606.465C605.699 78.9209 605.124 79.4956 605.124 80.2618C605.124 81.028 605.699 81.6027 606.465 81.6027H607.423V83.8056H595.259V81.89H590.949V79.2082H590.662V81.89H588.65V83.9971H587.118V102.291H577.54V52.1989H567.962V47.6973H567.579V52.1989H564.706V51.5284H562.024V43.8662H553.021V45.5902H551.584V52.9651H549.477V49.3256H543.73V91.4678H540.666V103.153H536.834V53.3482H535.685V52.3904H534.248V53.3482H530.992V51.72H529.843V50.7622H518.158V51.0496H517.87V51.4327H517.583V45.9733H516.817V45.4944H516.242V45.9733H515.763V40.9929H515.476V45.9733H514.71V45.686H514.231V45.9733H514.039V51.6242H513.848V51.2411H513.56V51.6242H512.794V53.9229H510.687V55.4553H510.112V54.8807H509.825V55.4553H509.059V54.8807H508.772V55.4553H508.005V54.8807H507.622V55.4553H507.335V61.4893H506.952V60.9147H506.664V61.4893H506.09V60.9147H505.802V61.4893H505.228V60.9147H504.94V61.4893H504.366V60.9147H504.078V61.4893H503.791V65.3204H503.6V64.8416H503.312V65.3204H502.833V64.8416H502.546V65.3204H501.971V64.8416H501.684V65.3204H501.109V64.8416H500.822V65.3204H500.247V64.8416H499.96V65.3204H499.768V90.1269H498.332V74.4193H497.757V71.4502H496.991V68.2896H496.608V64.8416H496.32V60.8189H496.033V64.8416H495.746V68.2896H493.639V67.4276H493.256V62.2556H492.872V57.8498H492.585V62.2556H492.489V67.4276H492.01V68.2896H491.148V65.512H490.765V61.4893H490.382V65.512H490.095V68.2896H487.413V62.8302H487.126V57.9456H486.934V62.8302H486.743V71.0671H486.264V73.3658H485.306V98.3638H478.602V94.5327H465.48V93.2876H464.618V91.7551H465.48V90.4142H464.618V88.8818H465.48V87.5409H464.618V86.0084H465.48V84.6676H464.618V83.1351H465.48V81.7942H464.618V80.2618H465.48V78.9209H464.618V78.442H458.776V76.5265H458.68V78.442H458.009V75.5687H457.914V78.442H457.147V75.5687H457.052V78.442H456.86V74.8982H456.764V78.442H456.285V75.5687H456.19V78.442H455.519V73.0784H455.423V78.442H452.167V77.58H451.784V78.442H451.018V76.9096H450.539V78.442H448.527V77.0053H444.792H445.079V74.8024H444.792V73.4616H445.079V71.2587H444.792V69.9178H445.079V67.7149H444.792V66.0867H445.079V63.8838H444.792V62.5429H445.079V60.34H444.792V58.9991H445.079V56.7962H444.792V55.9342H441.631V55.2638H439.812V55.9342H438.566V54.5933H435.789V49.996H435.597V54.5933H432.916V55.9342H431.383V48.0804H431.192V55.9342H427.935V54.9764H424.296V55.9342H417.304V51.72H417.112V55.9342H416.442V56.7962H416.059V58.9991H416.442V60.34H416.059V62.5429H416.442V63.8838H416.059V66.0867H416.442V67.4276H416.059V69.6304H416.442V70.9713H416.059V73.1742H416.442V74.5151H416.059V76.718H416.442V78.0589H416.059V80.2618H416.442V81.6027H416.059V83.8056H416.442V85.1464H416.059V87.3493H416.442V88.6902H416.059V90.8931H416.442V92.234H416.059V94.4369H416.442V95.7778H416.059V97.9807H416.442V99.3216H416.059V101.524H416.442V102.865H416.059V103.823H408.013V78.6336L407.343 77.9631L407.726 77.4842L406.577 77.1011V67.4276L408.013 67.1402L406.864 66.7571V66.0867L403.033 64.5542H402.746V63.4049L402.075 62.7344V55.2638C402.075 55.2638 403.224 55.168 403.512 55.4553C403.799 55.7427 404.948 56.1258 404.661 55.8384C404.47 55.5511 404.565 54.9764 404.47 54.8807C404.278 54.7849 403.799 54.4976 403.416 54.2102C402.937 53.9229 402.171 53.5398 402.171 53.5398V52.7736H401.788V62.926L400.926 63.2133V64.8416L396.52 65.4162V66.1824H395.466L396.616 66.6613V76.6222H396.52L395.466 77.1969H396.233L395.083 78.3462V104.015H384.26V83.7098H381.291V82.9436H379.28V83.7098H377.843V80.2618H372.959V77.9631H367.691V76.0476H366.925V77.9631H363.572V83.1351H360.891V80.9322H359.262V83.1351H355.431V80.9322H352.175V75.6644H350.642V74.8024H349.78V75.6644H349.302V74.132H348.44V75.6644H347.673V77.8673H345.183V77.2927C345.566 77.0053 345.854 76.6222 345.854 76.2391C345.854 75.4729 344.992 74.8024 343.842 74.8024C342.693 74.8024 341.831 75.4729 341.831 76.2391C341.831 76.9096 342.406 77.3884 343.172 77.58V77.8673H341.927L339.628 79.0167V76.2391H339.149V79.304L336.755 80.5491V83.8056L334.648 86.8704V99.8004H333.786V98.8427H330.816V99.8004H326.698V105.93H323.346V100.662H318.174V108.037H314.726V100.567H310.895V99.8004H302.658V100.567H300.742V95.7778H298.922V94.5327H297.773V94.0538H299.497V92.9044H293.08V94.0538H293.559V94.5327H290.686V56.2216H288.962V55.5511H289.345V54.5933H285.705V55.5511H286.28V56.2216H284.173V54.306H282.257V51.1453H280.342V50.2833H277.564V49.134H274.691V50.2833H272.967V48.5593H270.093V49.134H269.231V47.9847H267.316V49.134H266.262C266.741 48.6551 267.028 48.0804 267.028 47.41C267.028 46.0691 265.975 45.0156 264.634 45.0156C263.293 45.0156 262.24 46.0691 262.24 47.41C262.24 48.7509 263.293 49.8044 264.634 49.8044C264.73 49.8044 264.73 49.8044 264.826 49.8044V49.996H262.431V47.7931H261.378V49.996H258.983V50.3791H256.589V54.2102H247.969L245.957 55.0722H247.969V57.0836H245.287V82.2731H242.797V86.4873H236.571V82.752H230.537V85.2422H228.526V81.6984L227.472 89.4565H222.588V88.4987H223.545V87.4451H222.588V86.3916H223.545V85.338H222.588V84.3802H223.545V83.3267H222.588V82.3689H223.545V81.3153H222.588V80.2618H223.545V79.2082H222.588V78.1547H223.545V77.1011H222.588V75.9518C222.588 75.9518 217.224 73.9404 212.244 77.1011V74.7067H210.041V56.9878C210.041 56.9878 208.508 56.7962 206.305 56.5089V54.5933H203.911V56.2216C203.528 56.2216 203.24 56.1258 202.857 56.1258V52.6778H203.528V51.9116H201.038V52.6778H202.091V56.1258C198.835 55.9342 195.387 56.03 193.663 56.892C193.663 56.892 180.924 55.6469 180.924 58.8076C180.924 61.9682 180.924 75.6644 180.924 75.6644H178.913V72.6953H176.231V70.5882H173.741L172.592 72.9827H169.144V76.0476H167.42V33.9053H168.377L167.611 33.1391H165.408C165.408 33.1391 163.493 30.8404 161.386 32.5644H158.608V33.3307H159.949V83.3267H157.842V42.7169L155.926 41.376H122.691V38.5027H113.976V32.5644H111.198V14.3667H110.528L110.049 31.894H108.516V37.5449H104.302V39.2689H103.057V45.1113H101.046V68.5769H98.8427V69.1516H101.046V70.9713H82.9436V69.1516H86.1042V67.3318H82.9436V64.65H86.1042V62.8302H82.9436V59.7653H86.1042V57.0836H82.1773C80.5491 56.4131 78.3462 55.5511 77.0053 55.0722V35.9167C77.0053 35.9167 77.1011 30.3616 75.2813 30.3616C73.4616 30.3616 70.4924 30.3616 70.4924 30.3616V33.7138H67.0444V28.5418H73.7489V24.5191H68.0022V21.3584H65.8951V13.3131H65.3204V21.0711H61.9682V24.2318H56.6047V28.2544H63.5964V30.5531H54.306V33.5222C54.306 33.5222 52.0073 34.2884 52.0073 38.9816V47.3142H43.7704V38.6942H43.2916V47.3142H39.0773V44.9198H38.6942V47.3142H37.3533V48.5593H33.618V40.2267H33.4264V48.5593H25.6684V52.4862H23.8487C24.136 52.2947 24.3276 52.0073 24.4233 51.72C24.9022 50.6664 24.136 49.4213 22.7951 48.8467C22.6993 48.8467 22.6036 48.7509 22.6036 48.7509V43.6747H22.0289V48.5593C20.9753 48.3678 20.0176 48.8467 19.6344 49.6129C19.2513 50.5707 19.826 51.8158 20.9753 52.3904H5.45933V53.7313H4.02267V56.5089H6.12978V59.3822H4.11844V61.6809H6.12978V64.0753H4.11844V66.374H6.12978V68.7684H4.11844V71.0671H6.12978V73.4616H4.11844V75.7602H6.12978V78.1547H4.11844V80.4533H6.12978V82.8478H4.11844V85.2422H6.12978V87.6367H4.11844V89.9353H6.12978V93.5749H0V135.909H611.637H633.378H645.925H650.906H659.622H689.6H862V103.823H853.572V103.727ZM406.289 82.0816L406.768 82.9436C406.768 82.9436 406.864 86.0084 406.768 86.1042C406.768 86.2 405.14 85.8169 405.14 85.8169V82.6562H406.002L406.289 82.0816ZM405.044 67.7149L405.81 67.6191V77.0053L405.044 76.8138V67.7149ZM405.906 89.0733C406.672 89.0733 407.247 90.2227 407.247 91.6593C407.247 93.096 406.672 94.2453 405.906 94.2453C405.236 94.2453 404.565 93.096 404.565 91.6593C404.565 90.2227 405.14 89.0733 405.906 89.0733ZM403.224 68.0022L404.182 67.8107V76.4307L403.224 76.1433V68.0022ZM401.596 68.2896L402.362 68.1938V76.1433L401.596 76.2391V68.2896ZM400.734 68.4811H400.83V76.3349H400.734V68.4811ZM399.202 67.8107L399.872 68.098V76.4307L399.202 76.5265V67.8107ZM399.872 82.3689H400.351V85.5296H397.669V82.4647H397.861L398.723 81.5069L399.872 82.3689ZM397.574 67.1402L398.34 67.4276V76.5265L397.574 76.6222V67.1402ZM399.01 88.786C400.351 88.786 401.405 89.8396 401.405 91.1804C401.405 92.5213 400.351 93.5749 399.01 93.5749C397.669 93.5749 396.616 92.5213 396.616 91.1804C396.616 89.8396 397.669 88.786 399.01 88.786ZM250.555 56.9878H249.597V54.9764H250.555V56.9878ZM254.003 56.9878H252.183V54.9764H254.003V56.9878ZM287.908 56.2216H287.142V55.5511H287.908V56.2216ZM744.002 83.614H743.236V82.9436H743.906V83.614H744.002Z" fill="#00b53f"/>
</svg>
